<svg width="184" height="184" viewBox="0 0 184 184" fill="none" xmlns="http://www.w3.org/2000/svg">
<path d="M155.043 0C165.824 0 174.507 8.717 175.019 18.9865V184L154.503 166.572L143.244 156.331L130.933 145.607L136.057 162.501H28.4511C17.6986 162.501 8.9873 154.353 8.9873 143.514V19.021C8.9873 8.7515 17.7043 0.0345 28.4856 0.0345H154.986L155.043 0ZM108.14 43.5735H107.899L106.341 45.103C122.245 49.7145 129.939 56.902 129.939 56.902C119.698 51.7787 110.44 49.2027 101.217 48.1562C94.5703 47.1385 87.8888 47.679 82.2596 48.1562H80.7013C77.1076 48.1562 69.4428 49.7145 59.1676 53.8143C55.6026 55.3725 53.5383 56.3903 53.5383 56.3903C53.5383 56.3903 61.2031 48.691 78.1541 44.5913L77.1076 43.5735C77.1076 43.5735 64.2908 43.0617 50.4563 53.3082C50.4563 53.3082 36.6218 77.418 36.6218 107.122C36.6218 107.122 44.2866 120.451 65.3143 120.957C65.3143 120.957 68.3963 116.886 71.4841 113.292C59.6851 109.698 55.0736 102.511 55.0736 102.511C55.0736 102.511 56.1201 103.023 57.6496 104.04H58.0981C58.3396 104.04 58.4603 104.161 58.5753 104.282V104.339C58.6961 104.46 58.8168 104.546 59.0238 104.546C61.5711 105.593 64.0838 106.611 66.1538 107.629C69.7476 109.158 74.3303 110.71 79.9596 111.734C87.0896 112.78 95.2603 113.263 104.575 111.734C109.158 110.687 113.77 109.699 118.381 107.629C121.348 106.099 125.028 104.575 129.07 101.97C129.07 101.97 124.488 109.158 112.177 112.752C114.695 116.317 118.255 120.416 118.255 120.416C139.305 119.939 147.482 106.611 147.93 107.18C147.93 77.5042 134.004 53.3658 134.004 53.3658C121.486 44.0508 109.745 43.6942 107.68 43.6942L108.1 43.5447L108.14 43.5735ZM109.428 77.418C114.822 77.418 119.163 82.0007 119.163 87.63C119.163 93.3225 114.793 97.8995 109.428 97.8995C104.035 97.8995 99.6936 93.3167 99.6936 87.6875C99.6936 81.995 104.064 77.418 109.428 77.418ZM74.6006 77.418C79.9596 77.418 84.3066 82.0007 84.3066 87.63C84.3066 93.3225 79.9366 97.8995 74.5718 97.8995C69.1783 97.8995 64.8083 93.3167 64.8083 87.6875C64.8083 81.995 69.1783 77.418 74.5718 77.418H74.6006Z" fill="black"/>
</svg>
